<svg xmlns="http://www.w3.org/2000/svg" viewBox="0 0 410.9 642.3"><g fill="#E9EAF2"><path d="M112.9 642.3C112.7 642.3 112.5 642.3 112.4 642.3C108.5 642.1 105.1 640 103.2 636.6C81.8 597.2 65.3 570.5 54.2 557.3L53.9 557C50.9 553.4 41.6 542.4 35.3 525.7C32.8 519.2 31 512.3 29.9 505.3C29.4 502 30.4 498.7 32.6 496.2L35.9 492.6L38.3 489.7C40.7 486.9 42.7 483.9 44.6 480.7L51.3 469.1C51.4 469.1 51.4 469 51.5 468.9L53.1 466.1C56.8 460.1 60.8 453.7 65.8 447.7L64 441.9C63.9 441.7 63.8 441.5 63.8 441.3L60.2 427.7C60.2 427.5 60.1 427.4 60.1 427.2L58.7 420.6C58 417.5 58 415 58.3 412.9C57.1 413.2 55.8 413.4 54.4 413.4C52.2 413.4 50.2 413 48.6 412.4L44.9 411C44.4 410.7 43.9 410.5 43.3 410.2L40.5 408.5C40.3 408.4 40.1 408.2 39.9 408.1C33.8 403.9 30.3 398.1 27.5 393C27.1 392.4 26.8 391.7 26.6 391L25.6 387.7C24.6 384.8 24.2 382.2 23.8 379.8C23.7 379.3 23.6 378.8 23.5 378.3L22.2 370.5L21.1 365.9C21 365.3 20.8 364.7 20.7 364.1C20.4 362.7 20.2 361.7 19.9 360.8L18.4 357L16.4 351.8C16.4 351.8 14 346.1 14 346L12.5 342.4C12.4 342.2 12.4 341.9 12.3 341.7L9 331.8C8.9 331.3 8.8 330.9 8.7 330.4L6.8 320.6C6.8 320.5 6.7 320.3 6.7 320.1L5.8 313.8C5.7 313.5 5.7 313.2 5.7 312.9L5.4 308.8C5.4 308.6 5.4 308.4 5.4 308.1L5.5 292.5C5.5 286 7.8 279.4 12.2 273.6L11.1 269.5C11 269.3 11 269.1 10.9 268.8L9.9 263.6C8.8 260.4 8.7 257.3 8.5 254.9L8.3 249.9L8 245.9C8 245.7 8 245.6 8 245.4L7.8 235.2C7.8 235.2 7.5 231.6 7.5 231.5L7.3 227.5C7.3 226.8 7 226 6.6 224.5L4.7 217.9C4.6 217.8 4.6 217.7 4.6 217.6L1.7 206.2C0.5 201.8 0 197.6 0 193.4L0 182.1C0 181.8 0 181.6 0 181.3L0.4 176.6C0.4 176.3 0.4 176 0.5 175.7L1.8 167.1C1.8 166.8 1.9 166.4 2 166.1L3.5 160.3C3.5 160 3.6 159.8 3.7 159.6L5.6 153.8C5.7 153.6 5.7 153.5 5.8 153.3L7.3 149.3C7.4 149.1 7.4 149 7.5 148.8L8.6 146.2C6.4 142.8 5.5 137.5 9.5 129.4L10.8 126.6C13 122.3 15.5 118.1 19.1 113C19.9 111.8 20.8 110.9 21.5 110C22 109.5 22.7 108.7 22.9 108.4C27.5 100.3 32.6 93 38.5 86.2C38 84.2 38.1 82 38.8 80C41.3 72.4 46.3 66.8 49.7 63.1C51.7 60.9 54.2 58.1 57.4 55.6C62.1 51.9 66.5 49.2 71.3 47L74.2 45.7L78 43.8L84 40.3C88.7 37.6 93.7 34.7 99.8 31.5C102.8 29 105.9 27 109.2 25.5L111.3 24.3C111.5 24.2 111.8 24.1 112 23.9L114.1 22.9C114.4 22.8 114.7 22.6 115 22.5L118.5 21.2C118.8 21.1 119.1 21 119.4 20.9L126.2 19C129.5 18 132.5 17.9 135.2 17.8C135.4 17.6 135.7 17.4 136 17.2L140.7 14.3C141.1 14.1 141.4 13.9 141.7 13.8L148.7 10.4C148.9 10.3 149.1 10.2 149.2 10.2L153 8.6C153.1 8.5 157.5 6.8 157.5 6.8L161.9 5.1C162.3 4.9 162.7 4.8 163 4.7L168.2 3.3C168.2 3.2 168.3 3.2 168.4 3.2L173 2.1C173.2 2 173.5 1.9 173.8 1.9L180.7 0.7L183.5 0.2C184.1 0.1 184.7 0 185.4 0C185.4 0 199.7 0 199.7 0C200.6 0 201.6 0.1 202.5 0.4L205.1 1C208.9 1.3 211.9 2.2 214.6 3L220.5 4.9C220.8 5 221.1 5.1 221.3 5.2L226.3 7.2C226.6 7.4 227 7.5 227.3 7.7L233.7 11.1L239 13.7L242.7 15.2L246 16.5L249.7 17.4C250.1 17.5 250.4 17.6 250.8 17.7L253.6 18.6C253.6 18.6 261.2 20.8 261.3 20.8C262.6 19.2 264.3 18 266.3 17.3C267.8 16.7 269.4 16.5 271 16.5C275 16.5 278 18.2 279.4 19.1L281.6 20.4C290.3 24.1 296.8 27.8 302.7 32.5L307.2 36.1C307.4 36.2 307.5 36.3 307.7 36.4L307.8 36.6C309 36.3 310 36.3 310.7 36.3C313.8 36.3 316.6 37.3 318.7 39.1L322.6 42.5C323.7 43.4 324.5 44.3 325.2 45C325.2 45.1 325.3 45.2 325.4 45.2C327.3 45.6 329.7 46.1 332.2 47.2L336.2 49.1C346.5 53.8 355.1 61.3 361.7 71.3C361.9 71.5 362 71.8 362.1 72L367.5 81.6C367.7 82 367.9 82.4 368.1 82.8L369.6 86.4C371.5 91 372.1 95.5 372.3 98.4L372.7 103.8C372.7 103.8 378.4 109.7 378.4 109.7C381.9 113.4 385.9 117.5 388.6 123.3L390.7 127.9C391.5 129.8 394.1 135.5 391.6 141.7L396.1 150.7C396.2 150.9 396.3 151 396.4 151.2L397.8 154.5C397.9 154.7 398 154.9 398 155.1L399.7 159.6L401.5 164.3C401.7 164.9 401.8 165.5 401.9 166.1L403.6 174.8C403.7 175 403.7 175.3 403.7 175.6L404.8 184.8C404.9 185.1 404.9 185.5 404.9 185.9L405.1 196C405.1 198.5 404.6 201.7 402.6 205L402.3 233.8C402.3 233.9 402.3 234 402.3 234.1L402 241.7C402 241.9 402 242 402 242.2L401.6 245.7L401.2 252L401.1 257.6C400.9 261.1 400 263.5 399.4 265.2C399.3 265.4 399.2 265.7 399.1 265.9C399.1 266.3 399.1 267.3 399.2 268C399.2 269.7 399.3 271.8 399 274.1C398.5 277.9 396.9 280.6 395.9 282.3C395.7 282.7 395.4 283.1 395.4 283.3C395.1 283.9 394.9 284.4 394.8 284.7L396.3 289.3C396.4 289.5 396.5 289.8 396.6 290.1L397.7 294.2L399 298.5C399.1 298.8 399.2 299.2 399.3 299.5C400 301.6 401 304.5 400.9 307.9L400.9 320.2L400.9 329L401.4 334.4C401.4 334.4 402.7 339.2 402.7 339.3L404.5 346.3C404.7 346.7 404.7 347.1 404.8 347.6L405.4 352C406.3 358.2 405.9 363.6 404.1 368.8L402.2 374.3C402.1 374.8 401.9 375.2 401.7 375.7C400 379 397.3 383.4 393.2 386.8C393.2 386.8 393 390.2 393 390.2C393 390.2 392.7 395.1 392.7 395.1L392.2 401C392.1 401.3 392.1 401.7 392 402.1L390.3 411.5C390.2 411.8 390.1 412.1 390.1 412.4L388.4 418.3C388.4 418.5 388.3 418.6 388.3 418.8L386.6 423.8C386.6 423.9 386.6 424 386.6 424L384.8 429.1L383.2 433.5C383.1 433.7 383 433.9 383 434.1L381.3 437.9C381.3 438.1 381.2 438.2 381.2 438.3L379.3 442.3C379.3 442.4 379.2 442.5 379.2 442.6L375.9 448.9C375.9 449 375.9 449.1 375.8 449.2L372.2 455.8C372.1 456 372 456.1 371.9 456.3L366.7 464.7C366.1 465.8 365.4 466.9 364.7 467.9C364.9 468.1 365 468.3 365.2 468.5L371.2 475.9C371.2 476 371.3 476 371.3 476.1L373.4 478.8C373.5 478.9 373.6 479 373.7 479.2L384.9 495.4C385.1 495.6 385.3 495.9 385.4 496.1C385.4 496.1 390.3 504.5 390.3 504.6L394.6 512.1C394.6 512.2 394.7 512.3 394.7 512.4L400.4 523.1C400.5 523.2 400.5 523.4 400.6 523.5C400.6 523.5 403.5 529.6 403.5 529.7L405.4 533.7C406 534.6 407 536.3 407.5 538.5L407.8 539C408.9 540.6 409.6 542.5 409.7 544.5C410.9 561.5 406.7 579.8 397.7 597.3C390.8 610.6 382.8 620.4 379.1 623.7C374.9 627.4 370.6 629.3 366.3 629.3L366.3 629.3C363.4 629.3 360.7 628.4 358.5 626.8C354.7 623.9 353.2 618.9 354.8 614.3C354.8 614.2 354.9 613.9 355.1 613.6C352 615.1 349.2 616.4 347.2 617.5C339.1 621.8 297.6 633.8 285.1 637.3C284.5 637.5 283.9 637.6 283.4 637.7L265.9 639.7C265.5 639.8 265.1 639.8 264.6 639.8C263.5 639.8 262.3 639.6 261.2 639.2L232.3 629.7C231.7 629.5 231.1 629.3 230.5 628.9L227.4 627.3L217.1 622.4C215.2 621.6 213.1 620.6 211 619.4C209.3 619.1 207.2 618.6 205.1 617.3C201.5 615.1 196.4 612.1 193 606.2C189.5 600.1 189.4 593.4 192.3 587.6L192.1 587.4L189.2 584.8C189.2 584.8 188.1 587.1 188.1 587.1C187.3 590 187.5 593.7 187.9 597.8L188.3 602.2L188.4 602.9C188.7 605.5 189 608.6 188.3 612.2L187.1 619.3C187.5 622.3 186.7 625.3 184.9 627.7C177 638 163.2 638.8 159.2 638.8L158.8 638.8C154.2 638.6 150.1 635.7 148.6 631.3L145.6 622.5C145.3 621.4 145.1 620.3 145.1 619.1L140.3 610.2L122 637.5C120 640.5 116.5 642.3 112.9 642.3"/></g><g fill="#0C1024"><path d="M360.8 544.4L359.3 549.8L357.5 554.2L355.9 557.4L354.3 560.6L352.8 563.1L346.9 571.5L341.7 577.6L337.8 582L333.7 586.5C332.2 588.2 330.8 590.2 328.6 591.3L325.1 593.1L321.8 594.8C321.4 594 322 592.7 322.5 591.7L324.4 587.8L326 584.6L327.8 580.5L329.3 576.9L330.9 572.3L332.7 567.9L334.5 562.4L335.9 557.7L337.9 549.7L340.2 539.1L341.7 528.9L343 519C343.5 515.9 343.6 513.2 344.5 510.1L344.9 505.5L345.4 501.1L347 490.6L348.7 483C349.3 483.7 349.7 484.4 349.9 485.2C350.4 487.4 351.3 489.1 352.4 491.2C353 492.2 352.9 494.2 353.3 495.4L355.3 502.2L357 507.5L358.7 513.8L360.3 520.8C360.8 523.3 361.2 525.6 361.3 528.2L361.5 534.8C361.6 538 361.7 541.3 360.8 544.4M310.5 398.3C308.9 397 306.8 397 304.7 397.5L298.9 398.7C295.1 397.8 291.5 396.7 288.1 395.1C284.8 393.6 278.4 392.1 275.2 392.2L270.6 392.3L262.3 392.5C257 392.7 255.1 393.3 250.9 393.7C247.6 394.1 239.5 394.2 236 394.8L229.8 395.9C228 396.2 226.2 396.4 224.4 396.9L219.7 398.4L213.3 400.4C210.4 401.4 209.9 403.8 207.2 404.7C205.4 405.3 203.5 406 201.5 406L194.9 405.8L189.5 405.5C183.3 405.1 181.6 407.7 177.3 408C174.5 408.1 174.5 407.4 171.6 406.7C169.4 406.2 174.2 404.9 177.3 401.9L182.8 396.7L186.8 393C190.7 389.3 190.6 396.2 194.8 397.3C196.1 397.7 198.5 397.7 199.8 397.3L205.5 395.5L210.3 393.8L214.1 392.2L217.7 391L221.5 389.8L228 388.1L234.3 387.1C236.9 386.6 239.1 386.5 241.7 387L248.4 388.3C250.7 389.2 251.9 389.2 254.2 388.3L258.9 386.5L264 385C269.3 384 274.9 384 280.3 385L289.5 387.5L293.3 388.7L298.5 390.6C299.9 391.1 301.9 391 303.5 390.7L305.9 388.8L307.7 385.9C308.2 385 308.9 382.6 310.4 383.4C315.3 386.2 319.6 390.2 322.9 394.6C323.9 396 324.4 397.8 324.1 399.4C323.9 401.3 324.5 400 321.4 399.4L310.5 398.3M265.1 513L262.7 517.2L261.4 520L259.7 524L258.1 528.7L256.9 533.4L255.8 538.7L254.7 546.3L254.7 560.8L255.1 566.1C255.4 570.9 256.1 574.9 251.1 577.1C249.3 577.8 247.8 578.3 245.9 578.5L239.2 579.2C235.4 579.6 228.8 579.5 226.4 578.3L213.3 571.7L204.1 566.6L192.8 558.8L169.2 541.8L152 529.3L149.7 527.6L144.9 524.3L142.6 522.3L140.6 520.9L136.2 517.8L133 515.1L123.1 507.1L119.9 504.4L112.9 498.5L109.4 495.1L103.6 488.8C100.4 485.4 97.4 482.1 94.8 478.2L93.2 475.8L91.2 471.8C90.7 470.7 90.4 469.5 90.7 468.4L96.1 472.9C98.5 474.9 100.2 477.2 102.3 479.5L110 487.9C112.9 491.1 116 493.5 119.8 495.7C120.2 492.4 117.3 489.1 116 486.8L112.9 481.4L111.2 479L106.3 470.7L105 468.3L103.5 465.5L101.5 461.2L100 458.3L98 454L96.5 450.5L95 447.2L91.3 436.6L89.7 432.4L88 427.1L86.4 421.8C86 420.5 85.3 419.6 85.5 418.1L86.4 418.4C86.7 419.8 87.2 420.2 87.8 421.2L89.7 424.2L91.3 427.2L94.8 433.2L102.9 444.8L108 450.8C113.8 457.7 120.1 464.1 127.4 469.3L132.8 473.2L141.5 478.7L144.1 480.2L147.3 481.8L155.3 485.1L160.7 486.7C165.5 488.2 174 490.3 173 486.5L171.7 481.1C171.6 480.6 171.6 479.9 171.8 479.6C172 479.3 173 479 173.3 479.2L176.7 481.1L181.6 483.9L184.5 485.8C185.9 486.7 187.9 487.4 189.1 488.6C189.8 489.3 190.4 489.7 191.2 490.2L194.8 492.4L202.7 496.7L206.6 498.5L211.1 500.3L215.5 501.8L222.2 503.5L227.8 504.6L242 505.7L251.6 505.6L258.2 505.2L262.7 504.9L267.3 504.6C268.5 504.5 269.9 504.4 270.5 505.3L265.1 513M83 151.7C78.2 157.5 74.3 163.9 71.8 171.1L70.5 174.7C69.2 178.5 70.1 185.4 68 189.4L66.6 192.1L64.6 195.8C62.1 200.5 59.7 204.9 57.7 209.8L56.2 213.1L54.4 217.1L52.9 220.1L51.1 223.7C51 223.9 50.6 224.5 50.5 224.4C48.9 222.7 50.4 218.9 51.1 215.4L52.5 208.7C53 206.2 52.9 204.2 52 201.9C51.7 201.2 51.4 200.1 50.8 199.9C50 199.6 48.9 200.1 48.5 200.9C47.2 203.7 45.9 206.2 44.2 208.8L42.4 210.5C42.1 210.1 41.5 208.9 41.5 208.3L41.7 200.3C41.7 197.8 42.2 195.3 42.9 192.9L44.7 186.2L46.6 180.4C50.3 168.7 57.4 158.6 67.4 151.4L72.1 148.4L74.3 147.3C78.3 145.2 81.9 143 85.4 140.1L91.3 135.2L97.4 131.2L104.1 127.7L107.8 126.1L110.9 124.6C111.2 124.4 111.6 123.5 111.5 123.2C111.5 122.7 110.7 122.2 110.1 122.1L101.9 121L90.8 119.4L87.7 118.9C82.3 118 75.3 119.2 70.4 121.4C70 121.6 69 121.5 68.7 121.2C68.5 120.8 68.8 119.9 69.2 119.6L71.6 117.2C76.7 112.1 82.6 108.4 89.3 105.9C91.5 105.1 93.4 104.7 95.7 104.1L99.4 103.3L113 101.9L122.8 101.8L129 102.2L133.4 102.5L143.5 103.4C144 103.4 145 103.6 145.4 103.4C145.8 103.3 146.1 102.4 146.1 101.8C141.1 96.6 134.4 93.4 127.2 92.2C126.2 91.8 125.1 91.1 123.9 90.3L127.7 89.8L138.6 89.7L143.2 90.1L150.4 91.8L154.5 93.2C160.2 95.9 164.7 100.2 169.5 104.1L173.5 107.4L178 111C180.3 111.6 181.4 113.6 183.3 114.4C185.4 115.3 187.1 116.2 188.9 117.7L191.3 118.5C192.1 119.2 192.8 119.8 193.8 120.1L198.7 121.9L202.8 123.5C204.1 124 205.3 124.4 206.7 124.8L210.7 125.8L221 127.6C222.7 127.9 224.3 127.8 226.1 129L215.9 130.1C211.7 130.6 207.6 130.1 203.3 129.7L195.9 128.3L190.4 126.8C188.9 126.3 187.1 125.8 185.4 125.6C183.9 125.4 182.4 127.1 181.1 127.4L175.8 128.4L171 129.5L167.5 130C166.3 130.1 165.6 130.2 164.4 130.6C163 131.1 160.9 131.5 159.4 131.5C157.9 131.4 157 132 155.5 132.2L145.2 133.4C143.9 133.5 143 133.3 141.7 133.8L136.9 134.1C130.7 135 124.9 133.8 118.7 133.5C115.2 133.3 111.3 134.4 108 135.2C105.8 135.8 103.7 137.3 101.7 138L98.1 139.2C95 140.3 92.3 141.7 90 144L85.9 148.3L83 151.7M69.1 241.4L68 245.3C67.4 247.4 67 249.3 66.7 251.3L65.5 258.5L65.1 264.7L65 286.2C65 287.2 66.2 288.8 66.3 289.7L66.6 297.4L66.8 318C66.4 318.5 65.3 319 64.8 318.9C64.3 318.8 63.5 318.3 63 317.9L60.3 316.1L60.1 327.9C60.1 331.7 55.8 335.4 58.8 344.4L60.4 349.5L62.1 355.5C62.2 356 61.9 357.1 61.5 357.2C60.1 357.7 58.3 353.7 54.7 351.1L49.8 348.6C47.2 347.3 43.2 340.8 43.2 337.6L43.2 333.7C43.2 331.1 43.9 328.7 44.9 326.3L46.7 322C48.4 317.9 54.4 316.2 51.3 313.1L42.1 303.8C41.2 302.9 40.4 301.3 39.3 300.9C37.5 300.4 35.3 303.6 34.4 306.6L32.9 312.1C31.5 316.9 31.9 320.3 30.8 324.6C29.9 322.6 29.1 320.9 28.7 318.8L27.8 312.8L26.8 307.5L26.4 303.1C26.2 300.7 26.2 298.6 26.5 296.1C26.6 294.8 26.3 292.6 27 291.6L28.6 289.3C29.9 287.4 34.3 288 36.8 290.3L39.2 291C39.5 290.8 39.8 289.4 39.6 288.9C38.3 285.6 38.5 281.8 39.5 278.5L41.3 272.9L43.1 268.7L44.7 265.7C45.5 264.1 45.9 262.8 47.8 261.8L48.7 266L50.8 272.2C51.7 271.1 51.6 269.8 52 268.5L53.7 264L55.6 258.1L59.4 249.5C61.6 244.4 65 240.2 69.7 236.8C70.6 238.6 69.6 239.8 69.1 241.4M108.1 74.2L111.2 72.5L114.4 70.9L118.5 69.2L123 67.5C129.6 64.9 136.2 63.9 143.3 64C148.1 64 152.5 64.4 157.1 66L161.4 67.4L165.4 69.3L173 73.5L179.8 78.2L184.2 82.6C182.3 83.7 180.9 82.3 179.5 81.7L174.9 79.7L170.6 78.1L160.9 76.2L155.4 75.9L150.9 76.3L144.7 77.5L137.9 78.7C136.1 79.6 134.3 78.9 133.4 77.2C130.5 76 127.4 75.6 124.3 75.6L116.6 75.6C113.9 75.7 111.1 75.9 108.5 76.9C106.9 77.5 105.4 78.2 103.6 77.1L108.1 74.2M179.6 52.7L184.7 52.5L195.8 52.5C198.4 52.5 200.8 53 203.3 53.8L207.8 54.8L214.4 56.8L218.2 58.3L221.6 59.7L226.6 61.7C228.9 62.6 230.8 63.8 233.6 63.8C232.6 60.4 231.4 57.7 229.8 54.8C229.3 53.9 229.2 52.8 229.5 51.8C230.5 52.5 231.4 53.1 231.9 53.7L235.8 58.7L242.4 66.7L246.2 71L253.7 79.1C251.7 80.2 250.8 78.8 249.3 78.2L242.6 75.4C241.4 75 240.7 74.4 239.6 73.9L229.6 69.7L226.2 68.3L222.2 66.5L216.7 64.5C215.3 64 213.3 63.6 211.8 63.5C210.3 63.4 210.1 65.8 210.9 66.8L215.5 72.7L219.7 78.5C221 80.4 222.6 81.9 223.2 84.4L217 80.8L206.6 73.4L199.6 68.1L196.7 66.3L189.2 61L186.5 59.3C185.4 58.5 184.3 57.8 183 57.2L178.9 55.5L173.4 53.5C175.6 52.7 177.5 52.8 179.6 52.7M166.9 308.8L162.3 308.5L162.3 307.9C164.2 307.4 166.9 307.8 168.8 306.8C170.1 306.2 171.1 305.7 172.6 305.2L178.5 303.2C179 303 180 302.1 180.5 302.3C182 302.8 182.6 301.4 183.3 301.2C185.3 300.5 187 300 188.7 299C189 298.9 189.6 298.6 189.8 298.8L190.4 299.6L188.1 301.4C187.2 302 185.6 302.7 184.5 303.2L181 304.8L175.8 306.6L172.4 307.7C170.6 308.3 169 308.9 166.9 308.8M161.8 390L163.4 386.9L167.2 381.9C167.9 381 169 380.6 170.2 380.9C168.9 383.8 167.4 385.7 165.6 388L164.3 391.4L160.7 400.3C159.8 398.9 161.1 391.3 161.8 390M136.1 261.4L139.5 258.5L143 256.3L153.8 251L157.8 249.2L162 247.6C165.2 246.4 168.5 245.6 171.9 245.4L177 245L188.8 245C192 245.1 195 245.6 197.8 246.6L202.2 248.2C205.2 249.3 209.8 253.6 210.3 257.3C210.6 259.3 208.4 260.1 207.2 260.7C204.3 262 202.4 261.6 199.5 260.7L194.3 259.1L186.4 257.2L177 256L172.5 255.6L166.2 255.6L161.7 256L151.6 257.3L145.9 258.9L139.9 260.9C138.6 261.3 137.7 262.3 136.1 261.4M151.7 289.3C151.8 290.1 151.7 291.1 151.5 291.5C148.2 291.2 145.4 291.5 142.7 293L135.8 295.9L133.1 297.3C127.9 299.9 124.8 299 126.5 297.7L129.2 295.6L138.7 286L142.3 283C147.3 278.9 153.1 276.1 159.4 274.2L164.8 272.6L169.6 271.8C172.6 271.2 175.3 270.5 178.5 270.3C183.7 270 188 269.8 193.1 271.6L196.3 272.7L200 274.3C201.6 275 203.5 275.8 205.3 275L207.1 272.5L209.5 267.9C212.9 268.4 213.1 272.6 212.6 276.4C212.4 278.4 211.9 281.2 209.8 282.1C205.5 282.5 201.6 279.4 199.4 281L201.1 283.7C201.7 284.6 202.4 285.4 202.3 286.4C202.2 287.1 200.9 288 200 288L192.6 288.2L193.3 284.6C193.5 283.5 191.6 282.1 190.5 281.5L184.7 278.5C184.3 278.3 183.2 278.2 182.8 278.2C180.8 278.5 181.6 283.7 180 286.4L178.4 289.2C177.3 291.1 174.8 291.7 172.7 291.9L169.3 292.2L164.2 292.5C161.6 292.7 159.6 291.9 158 289.7L155.1 285.8C153 285.2 151.6 287.3 151.7 289.3M261.1 355C266.5 351.7 268.3 345.8 275.6 342.4C281.1 339.7 283.8 343.9 286.1 342.5C289.4 340.5 290.9 332.6 288.8 328.6C288 327.3 287.4 326.1 288.3 324.5L294.5 327.9L299.9 331.7C304.7 335 308.9 338.7 312.1 343.6L321.8 358.4L328.1 366.4L332.8 371.3C334.1 372.8 336.3 375.1 336 377L334.9 387.6C334.6 390.2 334.1 392.6 333.5 395.1L332.6 399L330.6 404.4L328.6 408.3C327.8 406.5 328.5 404.5 329.1 402.5C329.8 400.2 330.3 391.2 329.8 388.3L328.7 382.7L327.4 378.2L326.2 375.7C324.5 372.2 321.6 369.6 319.2 366.6L313.6 359.7L309.8 354.4L305.6 348L300.1 340.7C298.2 338.2 296 336.2 293.4 334.3C291.8 335.9 291.5 337.5 290.9 339.5C290.3 341.5 288.3 343 286.8 344.4C284 347.1 280.8 348.4 277.2 349.6L273.9 350.6C270.5 351.7 267.6 353.5 265.3 356.3C261.6 360.9 263.8 364.8 262.3 370C257.9 373.3 252.9 372.7 247.6 372.4C245 372.2 242.4 372 239.9 371.2L235.1 369.6C230.9 368.2 227.3 366.3 223.6 364.1L210.5 356.3C206.2 353.7 202.6 350.4 200 346L198.1 344.5C195.5 345.2 193.2 346.8 191.4 349L185.7 356L178.9 365.4C178.6 365.9 178.2 366.8 177.9 367.1C177.5 367.4 176.3 367.5 175.8 367.1L176.7 364.3L178.9 358.1L181.5 352.9C183.5 348.7 186.4 345.1 189.8 341.9L193.5 338.3L201 332.1C201.4 331.8 203.1 332.2 203 332.7C201.5 339.9 202.3 346.3 209 349.8C210 350.3 210.9 350.5 211.8 349.6C215.5 346 219 345.4 224 344.5C226.1 344.2 228.1 344.8 230.2 345.4C231.8 345.8 233.6 346 235 346.7C237.6 348 240.4 349.1 242.1 351.5L243.6 353.5C245 355.4 246.4 356 248.7 356.3C252.4 356.6 258.7 356.4 261.1 355M317.1 294.5C315.9 295 314.6 295.4 313.5 295.3L300 295.2C297.1 295.2 293.9 294.1 291.1 293.2L287.3 291.9C284.9 291.2 284.2 289.6 284.7 289.4C284.9 289.3 285.5 289.3 285.9 289.3L291.8 290.9L298.9 292.6L305.3 293.8L317.1 294.5M266.8 261.9C267.5 261.6 268.3 261 268.5 260.4C268.9 258.7 264.9 258.3 265.9 254.4C266.2 253.3 266.8 252.4 267.3 251.4C268.1 250.1 268.4 248.5 270 247.9C270.6 247.7 271.3 246.6 271.7 246.3L275.8 243.4C276.8 242.7 277.8 242.4 279 242.1L285 240.1C288.1 239.1 291.2 238.5 294.5 238.5L300.3 238.5C303.9 238.5 307.1 239.1 310.5 240.2L315.3 241.6L319.5 243.2L324 245C325.2 245.5 326 246.1 326.9 247.2C327.6 247.4 327.6 247.9 326.8 248C319.2 246.4 313.6 247 306.5 248L300.4 248.9L293.3 250.7L286.9 252.7L279.7 255C278.2 255.5 276.5 256.3 275.3 257.1L272.6 258.9L269 260.8C268.6 265 268.5 270.9 271.9 270.8C276 270.6 280.3 266.5 288.1 264.5L297.8 262.9L308.3 263L316.4 264.1L323.5 266.3C326.8 267.4 329.9 268.8 332.4 271L337.1 275L342.8 280.8L344.8 282.9C343.9 283.3 343 283.4 342.2 283.2L337.4 281.8L330.6 279.4C327.4 278.3 324 278.2 320.6 278.1C320.5 276.9 320.4 275 319.9 274L315.4 271.6C315 271.4 314.1 271.2 313.8 271.3C313.4 271.3 312.8 272.1 312.7 272.5L311.4 276.1C310.9 277.5 310.1 279.6 308.8 280.3C305.8 281.7 302.8 281.5 299.6 281.5C296.3 281.5 293.2 281.6 290 280.4C287.7 277.8 288 273.8 285.8 273.7C285 273.7 284.3 274.3 283.5 274.9C282.7 275.7 280.9 276.3 280.7 277.6C280.6 278.8 281.4 279.9 282.2 281.5L276.6 282C274.9 282.2 273.8 282.3 271.9 281.9L273.6 278.8C274 278.1 274.5 277.4 274.3 276.6C274.1 275.8 272.8 275.3 271.8 275.6C268.1 276.8 265.5 280.6 265 280L264.2 278.8C263.5 277.8 262.7 276.1 262.7 274.9L262.6 267.5C262.6 266.5 264.8 262.6 266.8 261.9M273.4 99L277.6 99.5L284.4 99.7L291.1 100.1C292 100.1 294.3 100.4 294.1 98.8L292.7 95.5C292.5 95.2 293.7 94.6 294 94.8L298.4 97.4C302 99.5 305.6 101.2 308.6 104.1C309.7 105.1 310.8 106.1 311.6 107.4L313.1 110.3L314.9 113.9C315.2 114.4 313.5 115.1 313 114.9L309.9 113.5L306 111.8C303.6 110.8 300.4 110.3 298 110.7C295.9 111 295 110.8 293 110L287.9 107.6L282.8 105.6L279.5 104.3L275 102.5L269.6 100.6C268.9 100.3 267.8 99.3 267 98.5C269 98.2 271.1 98.8 273.4 99M275.5 52.2L280.4 54.3L286 57.5L290.9 61.4C295.1 65.5 297.9 70.6 300.3 75.8C300.8 76.8 300.9 77.8 300.3 78.3L296.8 74.5L293.5 71.6L288.1 68.2L284.4 64.9L282 62.6L278.9 59.5L274.3 56.4C273 55.5 272.2 54.8 270.8 53.9C270.1 53.4 269.3 52.4 268.2 52.2C265.9 51.9 269 49.4 275.5 52.2M330.6 126L336.3 130.6C341.3 134.5 346 138.8 349.5 144.1L353 149.3L357.5 156.7L359.2 160.3L361 163.7L362.5 167.7L364.3 172.8L365.9 177.7L367.6 184L368.7 190.5C369.1 192.7 370.3 194.7 369 197.2L361.9 184.8L360.2 181L358.7 177.4L357.1 173.9L355.2 169.9L352.6 164.4L351.1 161.5L343.1 147.1C338.6 139 332.3 132.3 326 125.2C327.7 124.2 329.3 125 330.6 126M370.8 228.5L372.5 234.3L374.3 241.6L376.2 255.1L376.5 260.2L378 270.9L378 281.7L377.6 282.4C377.5 282.6 377 282.3 376.9 282.1L376.1 276C375.9 274 375 272.8 374.9 270.9L374.6 267.2L373.4 260.9L371.7 250.9L370.2 242.9L368.7 234.5L366.7 224L366.2 219.7C366.2 219.4 366.6 218.6 366.8 218.5C367.2 218.4 367.7 219.1 367.8 219.4L369.3 223.8L370.8 228.5M398.8 545.2L398.2 544.5L397 542.7C396.8 542.4 396.8 541.6 396.8 541C396.7 540.4 395.9 539.4 395.6 538.8L393.5 534.2L390.7 528.2L385 517.5L380.7 510L375.9 501.6L364.7 485.5L362.6 482.8L356.7 475.5C355.9 474.5 354.3 473.1 353.3 474.5C352.2 476.1 351 477.6 349.2 478.6C346.9 480 344.9 481.7 342.8 483.6L339.4 486.7L335.9 489.4C335.6 489.6 334.8 489.7 334.8 489.4L334.9 487.8C337.4 484.3 339.6 481 342.5 478L347.4 472.4C351.2 468.1 354.4 463.8 357.4 459L362.6 450.6L364.6 446.8L366.1 444L369.4 437.6L371.2 433.6L372.8 429.8L374.4 425.5L376.2 420.4L377.8 415.4L379.5 409.5L381.2 400.1L381.7 394.2L382 389.4L382.4 383.4C382.6 381 383.5 380.3 385.3 379.1C388.1 377.1 390.3 373.9 391.8 370.8L393.7 365.3C395 361.3 395.1 357.7 394.5 353.5L393.9 349.1L392.1 342.1L390.5 336.4L389.9 329.5L389.9 320.2L390 307.9C390 305.8 389.1 303.7 388.5 301.7L387.1 297.2L386 292.9L383.9 286.9C383 284.4 384.2 281.3 385.3 278.8C386.2 276.8 387.8 275 388.1 272.7C388.6 269.5 387.6 266 388.5 263C389.1 261 390 259.6 390.1 257.3L390.3 251.5L390.7 244.9L391 241.2L391.3 233.7L391.6 204.3L391.9 200.7C393.2 199.5 394.1 198 394.1 196.2L393.9 186L392.8 176.8L391.2 168.1L389.4 163.4L387.7 158.9L386.3 155.6L381.3 145.6L379.5 141.9L377.7 138C377.4 137.4 377.9 136.6 378.6 136.5C379.8 136.4 380.8 138.7 381.3 137.9C382.1 136.2 381.5 134.3 380.7 132.4L378.6 127.8C376.7 123.7 373.4 120.4 370.3 117.1L364.8 111.5C363.5 110.1 362 108.2 361.8 106.2L361.3 99.2C361.2 96.3 360.5 93.2 359.4 90.6L357.9 87L352.6 77.4C347.3 69.4 340.3 63 331.6 59.1L327.6 57.2C325.8 56.4 324 56.1 322 55.8C319.1 55.4 317.5 52.6 315.4 50.8L311.5 47.4C311.2 47.1 309.9 47.2 309.6 47.5C309.3 47.8 309.2 48.6 309.4 49.2C310 51.4 309.2 52.6 308.6 52.1L306 49.7L300.4 44.7L295.9 41.1C290 36.4 283.6 33.1 276.7 30.2L274.2 28.7C272.9 28 271.6 27.1 270 27.6C269.4 27.8 269.8 29.2 270.1 29.8L272.7 34.3C272.9 34.6 272.8 35.5 272.6 35.7C272.4 36 271.5 36.3 271.2 36.2L266.9 34.6L261.6 32.8L258.1 31.3L250.4 29.1L247.3 28.1L242.8 27.1L238.6 25.4L234.4 23.8L228.7 20.8L222.2 17.4L217.2 15.4L211.3 13.5C208.6 12.7 206.3 12.1 203.4 11.9L199.7 11L185.4 11L182.6 11.5L175.6 12.7L171.1 13.9L166 15.3L161.5 17L157.3 18.7L153.5 20.3L146.5 23.7L141.7 26.6L139.3 28.5C135.8 28.9 132.5 28.6 129.2 29.5L122.4 31.5L118.9 32.8L116.8 33.8L114.2 35.3C111.2 36.7 108.5 38.4 106 40.6C100.4 43.6 95 46.6 89.5 49.8L83.3 53.5L78.9 55.6L75.9 57C71.6 59 67.8 61.4 64.1 64.3C61.8 66.1 59.8 68.3 57.8 70.5C54.3 74.4 50.9 78.3 49.2 83.5C49 84 50.8 84.3 51.3 84.1C52.3 83.5 53.4 83.2 54.8 83.1C54.4 84.9 53.5 85.9 52.5 87.1L48.3 91.7C42.1 98.6 37 105.8 32.4 113.8C31.3 115.8 29.4 117.5 28.1 119.4C25.3 123.3 22.8 127.1 20.7 131.4L19.3 134.2C18.2 136.5 17.1 139.6 18.1 140.4C18.3 140.6 19 140.7 19.2 140.5L21.4 139.1C22.3 138.5 23.1 138.1 24.2 138.6L21.5 144.2L19.2 149.4L17.6 153.2L16 157.2L14.1 163L12.6 168.8L11.3 177.3L11 182.1L11 193.4C11 196.8 11.5 200.2 12.3 203.5L15.2 214.9L17 220.9C17.6 222.9 18.1 224.7 18.3 226.9L18.5 231L18.7 234.7L19 245.2L19.2 249.3L19.5 254C19.6 256.4 19.7 258.6 20.5 260.8L21.7 266.7L23.4 272.9C23.9 274.7 24.6 276.1 23.1 277.7C19.3 281.6 16.4 286.9 16.4 292.5L16.4 308.2L16.7 312.3L17.6 318.5L19.5 328.4L22.7 338.3L24.2 341.9L26.6 347.7L28.7 353L30.2 357C31 359.1 31.3 361.1 31.8 363.4L33 368.3L34.4 376.4C34.8 379.1 35.1 381.6 36 384.4L37.1 387.7C39.5 392 42.1 396.2 46.2 399.1L48.9 400.7L52.6 402.2C53.3 402.4 55.1 402.4 55.8 402.2C58.4 401.3 60.7 399.3 62.5 397.2C64.4 394.9 64.9 392.1 65.8 388.8C67.2 390.1 67.5 392.1 67.8 394L68.8 401.7L69.9 410.2C70.3 413.2 68.4 413.5 69.4 418.3L70.8 424.9L74.4 438.5L76.4 444.6L77.6 448.4C78.4 450.6 77 451.6 75.7 453C70.7 458.8 66.6 465.3 62.5 471.9L60.8 474.6L54.1 486.2C51.9 490 49.5 493.4 46.8 496.7L44.2 499.8L40.8 503.6C41.4 507.8 42.7 514.3 45.6 521.8C51.4 537.3 60 547.1 62.6 550.2C71.4 560.7 86.3 582.4 112.9 631.3C122.3 617.3 131.7 603.3 141.1 589.3L145.6 597.7L147.5 601L149.5 604L156.2 616.7L156.9 617.7C157.1 618 156.4 619 156 619L159 627.8C159 627.8 170.8 628 176.2 621C175.9 620.7 175.8 619.8 175.9 619.4L177.5 610.3C177.9 607.9 177.6 605.6 177.4 603.2L177 598.8C176.5 593.5 176.2 588.2 177.8 583.1L179.2 580.2C180.8 576.7 183.9 574.5 187.1 572.7C189.3 571.5 191 571.6 192.9 573.4L199.6 579.4L203.1 582.9L206 585.9C206.3 586.3 206.6 587.3 206.6 587.8C201.7 590.9 199.6 595.7 202.5 600.7C204.5 604.1 207.5 605.9 210.8 607.9C211.8 608.5 213.7 608.6 214.9 608.8C217.3 610.5 219.8 611.6 222.3 612.8L232.4 617.4L235.8 619.3L264.7 628.8L282.1 626.7C282.1 626.7 334.4 611.9 342.1 607.8C349.8 603.7 369.2 595 369.2 595C369.2 595 370.8 604.7 369.2 607.8C367.7 610.9 365.1 618 365.1 618C365.1 618 367.2 619.6 371.8 615.5C376.4 611.4 401.1 581.1 398.8 545.2"/></g></svg>